<?xml version="1.0" encoding="utf-8"?>
<!-- Generator: Adobe Illustrator 19.2.0, SVG Export Plug-In . SVG Version: 6.00 Build 0)  -->
<svg version="1.1" id="Vrstva_1" xmlns="http://www.w3.org/2000/svg" xmlns:xlink="http://www.w3.org/1999/xlink" x="0px" y="0px"
	 viewBox="0 0 135.982 57.75" enable-background="new 0 0 135.982 57.75" xml:space="preserve">
<g>
	<defs>
		<rect id="SVGID_1_" x="-5.75" y="-42.482" width="141.732" height="141.732"/>
	</defs>
	<clipPath id="SVGID_2_">
		<use xlink:href="#SVGID_1_"  overflow="visible"/>
	</clipPath>
	<path fill="#ffffff" clip-path="url(#SVGID_2_)" d="M122.923,18.313c-0.217,0.475-0.35,0.807-0.516,1.123c-1.536,2.93-3.076,5.857-4.617,8.784
		c-0.96,1.821-1.288,2.152-3.146,3.168c1.733,0.397,2.591,1.611,3.285,3.049c1.691,3.509,3.433,6.995,5.211,10.605
		c-0.368,0.037-0.638,0.087-0.909,0.087c-2.648,0.005-5.296-0.027-7.94,0.022c-0.737,0.013-1.113-0.184-1.406-0.889
		c-1.041-2.503-2.163-4.972-3.253-7.455c-0.224-0.509-0.399-0.967-1.154-0.978c-0.754-0.01-0.926,0.419-1.158,0.944
		c-1.092,2.48-2.223,4.947-3.292,7.438c-0.282,0.656-0.595,0.962-1.382,0.945c-2.784-0.061-5.57-0.023-8.498-0.023
		c0.239-0.522,0.408-0.92,0.604-1.303c1.521-2.98,3.081-5.94,4.557-8.941c0.716-1.456,1.61-2.668,3.477-3.331
		c-1.958-0.312-2.78-1.526-3.475-2.931c-1.674-3.39-3.391-6.757-5.184-10.319c2.354,0,4.556,0.208,6.702-0.053
		c2.527-0.309,3.861,0.587,4.597,2.984c0.531,1.725,1.479,3.32,2.21,4.986c0.227,0.515,0.451,0.845,1.121,0.837
		c0.642-0.008,0.898-0.276,1.137-0.807c1.083-2.405,2.193-4.798,3.32-7.182c0.138-0.292,0.436-0.722,0.666-0.727
		C116.847,18.296,119.813,18.313,122.923,18.313"/>
	<path fill="#ffffff" clip-path="url(#SVGID_2_)" d="M16.689,45.023c0.82-2.018,1.6-4.012,2.466-5.968c0.103-0.233,0.666-0.367,1.018-0.369
		c3.317-0.027,6.635-0.017,9.953-0.017h1.306v-3.95c-1.758,0-3.537,0.003-5.316-0.001c-1.043-0.002-2.091,0.04-3.129-0.036
		c-3.203-0.234-5.43-2.314-5.69-5.509c-0.15-1.846-0.14-3.736,0.074-5.574c0.356-3.07,2.475-5.16,5.567-5.232
		c5.881-0.14,11.767-0.041,17.803-0.041c-0.829,2.083-1.595,4.081-2.444,6.044c-0.1,0.232-0.653,0.374-0.999,0.376
		c-3.355,0.027-6.709,0.017-10.065,0.017c-0.404,0-0.809,0-1.296,0v3.813c2.325,0,4.626,0.019,6.925-0.006
		c1.504-0.014,2.983,0.025,4.308,0.87c1.79,1.141,2.799,2.76,2.865,4.886c0.055,1.75,0.059,3.505-0.008,5.255
		c-0.112,2.942-2.62,5.493-5.557,5.524c-5.778,0.061-11.556,0.02-17.333,0.018C17.034,45.124,16.929,45.079,16.689,45.023"/>
</g>
<rect fill="#ffffff" x="3.243" y="9.442" width="9.458" height="35.611"/>
<g>
	<defs fill="#ffffff">
		<rect fill="#ffffff" id="SVGID_3_" x="-5.75" y="-42.482" width="141.732" height="141.732"/>
	</defs>
	<clipPath fill="#ffffff" id="SVGID_4_">
		<use xlink:href="#SVGID_3_"  overflow="visible"/>
	</clipPath>
	<path fill="#ffffff" clip-path="url(#SVGID_4_)" d="M54.194,38.415h5.797c-0.851,2.165-1.649,4.235-2.502,6.283
		c-0.088,0.213-0.501,0.41-0.767,0.414c-1.9,0.032-3.804,0.073-5.702-0.01c-2.485-0.108-5.565-2.107-5.539-6.51
		c0.024-4.063,0.005-8.126,0.004-12.19v-1.316h-3.181c0.661-1.733,1.223-3.323,1.881-4.873c0.301-0.709,0.828-1.323,1.181-2.015
		c0.141-0.276,0.111-0.65,0.116-0.979c0.013-0.853,0.004-1.707,0.004-2.645h8.611v3.707h5.762c-0.595,1.518-1.263,2.85-1.633,4.261
		c-0.499,1.908-1.394,3.008-3.527,2.526c-0.133-0.031-0.285,0.031-0.504,0.06V38.415z"/>
	<path fill="#ffffff" clip-path="url(#SVGID_4_)" d="M80.23,18.308c-0.893,2.245-1.705,4.345-2.588,6.414c-0.089,0.206-0.611,0.315-0.934,0.32
		c-1.744,0.03-3.486,0.014-5.301,0.014v19.989h-8.516c-0.018-0.318-0.056-0.672-0.056-1.028c-0.004-6.376,0.084-12.756-0.037-19.131
		c-0.066-3.489,2.274-6.68,6.638-6.591c3.169,0.065,6.339,0.013,9.511,0.013H80.23z"/>
</g>
<rect fill="#ffffff" x="82.496" y="18.365" width="8.46" height="26.705"/>
<rect fill="#ffffff" x="82.492" y="8.484" width="8.487" height="6.34"/>
<path fill="#ffffff" d="M111.965,4.986c0.019-2.033,0.103-3.124,0.103-3.124s1.095,2.498,4.278,4.19c6.255,3.331,18.798,5.725,18.798,5.725
	s-1.919,3.391-4.515,5.908c-2.614,2.533-5.938,4.16-5.938,4.16s3.266-2.539,5.414-5.26c1.499-1.895,2.203-3.452,2.203-3.452
	s-8.335-0.499-13.931-2.561c-4.306-1.587-6.312-3.042-6.312-3.042S111.947,7.018,111.965,4.986"/>
<path fill="#ffffff" d="M112.311,11.085c0,0,2.905,1.333,5.631,1.993c5.951,1.43,12.972,1.237,12.972,1.237s-5.116,1.477-11.552,1.049
	c-4.454-0.299-6.225-0.703-6.225-0.703s-0.29-0.46-0.553-1.659C112.371,12.026,112.311,11.085,112.311,11.085"/>
<path fill="#ffffff" d="M117.914,52.25c0-1.484,1.041-2.386,2.35-2.386c1.294,0,2.349,0.894,2.349,2.386c0,1.494-1.055,2.386-2.349,2.386
	C118.955,54.636,117.914,53.735,117.914,52.25 M117.638,52.25c0,1.611,1.163,2.656,2.626,2.656c1.456,0,2.626-1.044,2.626-2.656
	c0-1.601-1.171-2.654-2.626-2.654C118.8,49.596,117.638,50.649,117.638,52.25 M115.945,54.818h0.284v-5.12h-0.284v2.276h-3.24
	v-2.276h-0.285v5.12h0.285v-2.575h3.24V54.818z M107.797,54.818h3.305v-0.27h-3.021v-2.305h2.407v-0.269h-2.407v-2.006h3.015v-0.27
	h-3.299V54.818z M109.478,49.303l0.703-1.01l-0.264-0.094l-0.731,1.104H109.478z M102.38,54.548v-4.58h1.28
	c1.42,0,2.452,0.827,2.452,2.313c0,1.491-1.053,2.267-2.386,2.267H102.38z M102.095,49.698v5.12h1.638
	c1.545,0,2.656-0.943,2.656-2.537c0-1.596-1.103-2.583-2.721-2.583H102.095z M100.812,49.954v-0.256h-4.015v0.27h3.086
	c0.409,0,0.577-0.008,0.585-0.008l0.006,0.008c0,0.008-0.188,0.205-0.591,0.703l-3.161,3.892v0.255h4.09v-0.27h-3.146
	c-0.344,0-0.571,0.015-0.578,0.015l-0.006-0.006c0-0.009,0.124-0.133,0.6-0.726L100.812,49.954z M97.864,48.425l0.922,0.819
	l0.915-0.819l-0.154-0.177l-0.76,0.695l-0.768-0.695L97.864,48.425z M94.546,52.947h-2.574l0.671-1.502
	c0.213-0.49,0.609-1.412,0.616-1.419h0.006c0.008,0.006,0.395,0.929,0.614,1.419L94.546,52.947z M94.663,53.201l0.717,1.616h0.299
	l-2.275-5.12h-0.285l-2.275,5.12h0.301l0.716-1.616H94.663z M89.564,54.818l0.329,0.008l-2.224-3.094l1.982-2.034h-0.35
	l-1.909,1.946l-0.973,1.001h-0.008c0-0.006,0.008-0.489,0.008-1.257v-1.69h-0.285v5.12h0.285v-1.82l1.038-1.062L89.564,54.818z
	 M77.786,52.25c0-1.484,1.038-2.386,2.347-2.386c1.297,0,2.349,0.894,2.349,2.386c0,1.494-1.052,2.386-2.349,2.386
	C78.823,54.636,77.786,53.735,77.786,52.25 M77.508,52.25c0,1.611,1.162,2.656,2.625,2.656c1.457,0,2.626-1.044,2.626-2.656
	c0-1.601-1.169-2.654-2.626-2.654C78.669,49.596,77.508,50.649,77.508,52.25 M73.463,52.405V49.96h1.09
	c0.959,0,1.573,0.395,1.573,1.266c0,0.894-0.636,1.179-1.522,1.179H73.463z M76.098,54.818h0.349l-1.316-2.215
	c0.776-0.118,1.272-0.541,1.272-1.377c0-0.981-0.687-1.528-1.843-1.528h-1.383v5.12h0.285v-2.164h0.797c0.125,0,0.439,0,0.572-0.009
	L76.098,54.818z M69.021,52.449V49.96h1.09c0.967,0,1.567,0.359,1.567,1.244c0,0.82-0.541,1.244-1.567,1.244H69.021z M68.736,49.698
	v5.12h0.285v-2.105h1.09c1.156,0,1.851-0.52,1.851-1.508c0-1.018-0.694-1.507-1.851-1.507H68.736z M64.763,54.818h0.285v-5.12
	h-0.285V54.818z M64.902,49.303l0.703-1.01l-0.257-0.094l-0.73,1.104H64.902z M62.767,54.818h0.284v-5.12h-0.284v3.496
	c0,0.609,0.022,1.179,0.022,1.186h-0.008l-3.411-4.682h-0.284v5.12h0.284v-3.517c0-0.624-0.021-1.194-0.021-1.201h0.007
	L62.767,54.818z M54.464,54.818h3.306v-0.27H54.75v-2.305h2.407v-0.269H54.75v-2.006h3.014v-0.27h-3.299V54.818z M49.426,53.436
	c0.094,1.179,1.075,1.47,1.916,1.47c1.084,0,1.727-0.467,1.727-1.39c0-1.141-0.981-1.331-1.749-1.477
	c-0.738-0.145-1.456-0.344-1.456-1.149c0-0.644,0.454-1.032,1.339-1.032c0.885,0,1.362,0.395,1.507,1.053l0.27-0.073
	c-0.197-0.864-0.87-1.243-1.777-1.243c-1.039,0-1.623,0.495-1.623,1.316c0,1.01,0.898,1.223,1.602,1.376
	c0.636,0.146,1.602,0.213,1.602,1.238c0,0.753-0.534,1.118-1.419,1.118c-0.9,0-1.632-0.373-1.669-1.28L49.426,53.436z
	 M50.333,48.425l0.922,0.819l0.922-0.819l-0.162-0.177l-0.76,0.695l-0.762-0.695L50.333,48.425z M45.191,54.818h3.307v-0.27h-3.022
	v-2.305h2.407v-0.269h-2.407v-2.006h3.014v-0.27h-3.299V54.818z M40.805,52.405V49.96h1.09c0.958,0,1.573,0.395,1.573,1.266
	c0,0.894-0.637,1.179-1.522,1.179H40.805z M43.439,54.818h0.35l-1.316-2.215c0.776-0.118,1.273-0.541,1.273-1.377
	c0-0.981-0.687-1.528-1.844-1.528H40.52v5.12h0.285v-2.164h0.797c0.125,0,0.439,0,0.571-0.009L43.439,54.818z M40.951,48.425
	l0.922,0.819l0.922-0.819l-0.162-0.177l-0.76,0.695l-0.762-0.695L40.951,48.425z M36.548,54.818h0.285v-5.12h-0.285V54.818z
	 M36.686,49.303l0.702-1.01l-0.255-0.094l-0.73,1.104H36.686z M34.55,54.818h0.285v-5.12H34.55v3.496
	c0,0.609,0.022,1.179,0.022,1.186h-0.007l-3.41-4.682H30.87v5.12h0.285v-3.517c0-0.624-0.022-1.194-0.022-1.201h0.008L34.55,54.818z
	 M26.483,52.405V49.96h1.092c0.958,0,1.573,0.395,1.573,1.266c0,0.894-0.637,1.179-1.522,1.179H26.483z M29.119,54.818h0.35
	l-1.316-2.215c0.776-0.118,1.272-0.541,1.272-1.377c0-0.981-0.686-1.528-1.843-1.528h-1.383v5.12h0.285v-2.164h0.798
	c0.124,0,0.439,0,0.571-0.009L29.119,54.818z M21.576,54.818h3.306v-0.27h-3.021v-2.305h2.406v-0.269h-2.406v-2.006h3.014v-0.27
	h-3.3V54.818z M16.16,54.548v-4.58h1.281c1.42,0,2.452,0.827,2.452,2.313c0,1.491-1.054,2.267-2.386,2.267H16.16z M15.875,49.698
	v5.12h1.639c1.544,0,2.655-0.943,2.655-2.537c0-1.596-1.103-2.583-2.721-2.583H15.875z M9.489,52.25c0-1.484,1.04-2.386,2.349-2.386
	c1.295,0,2.349,0.894,2.349,2.386c0,1.494-1.053,2.386-2.349,2.386C10.529,54.636,9.489,53.735,9.489,52.25 M9.213,52.25
	c0,1.611,1.162,2.656,2.626,2.656c1.456,0,2.627-1.044,2.627-2.656c0-1.601-1.17-2.654-2.627-2.654
	C10.375,49.596,9.213,50.649,9.213,52.25 M7.518,54.818h0.284v-5.12H7.51l-1.975,3.527H5.528l-1.976-3.527H3.259v5.12h0.285v-2.83
	c0-0.578-0.021-1.852-0.021-1.859h0.006c0.008,0.008,0.176,0.388,0.762,1.42l1.141,2.011h0.197l1.157-2.04
	c0.564-1.002,0.739-1.383,0.746-1.391H7.54c0,0.008-0.022,1.281-0.022,1.859V54.818z"/>
</svg>
