<?xml version="1.0" encoding="utf-8"?>
<!-- Generator: Adobe Illustrator 19.2.0, SVG Export Plug-In . SVG Version: 6.00 Build 0)  -->
<svg version="1.1" id="Vrstva_1" xmlns="http://www.w3.org/2000/svg" xmlns:xlink="http://www.w3.org/1999/xlink" x="0px" y="0px"
	 viewBox="0 0 1301 169" style="enable-background:new 0 0 1301 169;" xml:space="preserve">
<style type="text/css">
	.st0{fill:#FFFFFF;}
</style>
<g>
	<title>Layer 1</title>
	<g id="svg_1" transform="translate(0,169) scale(0.10000000149011612,-0.10000000149011612) ">
		<path id="svg_2" class="st0" d="M12494,1437c-3-8-3-56-2-108l3-94l253-3l252-2v29c0,40-37,157-56,176c-13,13-50,15-230,15
			C12545,1450,12498,1447,12494,1437z"/>
		<path id="svg_3" class="st0" d="M176,1335c-56-20-107-65-136-121l-25-48l-3-340L9,486l31-62c32-65,76-104,147-130
			c51-18,168-18,229,1c102,30,174,125,174,229c0,58-7,66-61,66c-27,0-29-2-29-40c0-116-97-191-228-176c-71,8-106,28-140,78l-27,41
			l-3,266c-2,146-1,294,3,328c8,77,35,120,95,151c59,31,168,27,223-7c43-27,77-92,77-149c0-37,3-42,23-42c59,0,67,9,67,66
			c0,66-16,108-61,159c-54,61-117,85-224,84C255,1349,198,1343,176,1335z"/>
		<path id="svg_4" class="st0" d="M1695,1326c-99-46-144-125-145-247c0-138,56-208,216-273c156-64,210-94,239-136
			c56-80,39-207-34-259c-66-47-198-51-262-8c-50,34-71,70-78,134c-6,55-7,58-31,55c-73-8-73-8-66-69c9-80,50-151,109-190
			c61-41,104-53,188-53c90,0,157,22,212,70c64,57,87,109,87,201c0,175-52,230-321,339c-126,51-180,125-164,225c8,56,63,121,113,135
			c98,27,203-1,242-66c12-19,25-55,29-82l6-47l40,4c22,1,43,5,47,7c10,6-1,91-17,130c-20,49-76,105-130,130
			C1903,1360,1766,1360,1695,1326z"/>
		<path id="svg_5" class="st0" d="M807,1333c-4-3-7-237-7-520V300h296h295l-3,42l-3,43l-245,5l-245,5v185v185l198,3l197,2v45v45
			l-197,2l-198,3v185v185l245,5c135,3,246,7,248,8s2,21,0,45l-3,42l-286,3C942,1339,811,1337,807,1333z"/>
		<path id="svg_6" class="st0" d="M2244,1326c-3-8-4-29-2-48l3-33l123-3l122-3V770V300h45h45v470v469l123,3l122,3v45v45l-288,3
			C2296,1340,2249,1338,2244,1326z"/>
		<path id="svg_7" class="st0" d="M3175,1328c-14-38-295-1007-295-1017c0-8,16-11,47-9l47,3l17,60c10,33,25,86,34,118l16,57h159
			c185,0,163,14,205-138l28-102h49c26,0,48,3,48,7c0,13-292,998-301,1016C3218,1343,3182,1346,3175,1328z M3274,865
			c31-110,59-208,62-217c5-17-6-18-130-18c-75,0-136,2-136,5c0,10,122,440,127,449C3206,1099,3215,1073,3274,865z"/>
		<path id="svg_8" class="st0" d="M4377,1333c-4-3-7-83-7-176c0-161-1-169-17-155c-52,46-134,64-208,48c-71-16-120-53-150-115
			c-26-52-26-53-23-283l3-230l30-44c76-109,254-130,348-40l28,27l27-33c15-18,33-32,40-32c9,0,12,111,12,520v520h-38
			C4401,1340,4380,1337,4377,1333z M4290,957c19-7,44-27,57-46c22-33,23-42,23-248V450l-34-37c-32-35-38-37-103-41
			c-82-5-123,12-153,61c-18,29-20,51-20,235c0,218,5,243,52,274C4156,971,4231,977,4290,957z"/>
		<path id="svg_9" class="st0" d="M5881,1273c-83-282-271-925-277-947c-6-25-5-26,43-26h50l28,103c42,151,20,137,205,137h159l16-58
			c9-31,24-84,34-117l17-60l47-3c30-2,47,1,47,8c0,22-292,1005-302,1018c-6,6-19,12-29,12C5905,1340,5896,1324,5881,1273z M5995,870
			c32-113,60-213,63-222c4-17-7-18-133-18c-125,0-136,1-131,18c3,9,23,82,46,162c73,256,81,283,89,274C5933,1079,5963,983,5995,870z
			"/>
		<path id="svg_10" class="st0" d="M6390,820V300h45h45v327c0,179,3,323,7,319s60-150,124-324c115-315,116-317,144-317
			c29,0,30,2,141,309c61,170,116,317,122,325c8,12,11-75,11-311l1-328h45h45l-2,518l-3,517l-22,3c-18,3-25-6-43-55
			c-28-74-269-729-283-767c-7-21-12-25-17-15c-5,8-74,194-155,414c-82,220-152,406-158,413c-5,6-18,12-28,12
			C6391,1340,6390,1322,6390,820z"/>
		<path id="svg_11" class="st0" d="M7360,820V300h290h290v45v45h-245h-245v190v190l198,2l197,3l3,43l3,42h-200h-201v190v190l243,2
			l242,3v45v45l-287,3l-288,2V820z"/>
		<path id="svg_12" class="st0" d="M8107,1333c-4-3-7-237-7-520V300h50h50v220v221l62-3l63-3l139-217l138-218h54c30,0,54,2,54,4
			c0,3-61,100-135,217c-75,116-134,212-133,213c2,1,25,7,52,14c85,22,151,83,182,169c18,52,17,178-2,242c-11,39-29,67-64,101
			c-68,69-112,80-325,80C8191,1340,8110,1337,8107,1333z M8511,1217c18-12,44-38,57-57c21-32,23-44,20-130c-3-81-6-100-27-129
			c-40-56-87-71-233-71h-128v205v205h139C8466,1240,8480,1238,8511,1217z"/>
		<path id="svg_13" class="st0" d="M8897,1333c-4-3-7-237-7-520V300h45h45v520v520h-38C8921,1340,8900,1337,8897,1333z"/>
		<path id="svg_14" class="st0" d="M9227,1333c-4-3-7-237-7-520V300h45h45v520v520h-38C9251,1340,9230,1337,9227,1333z"/>
		<path id="svg_15" class="st0" d="M9713,1318c-23-26-344-453-363-485c-12-18,4-42,180-277l193-256h60c46,0,57,3,50,12
			c-5,7-91,119-190,248c-98,129-183,240-187,247c-4,8,68,110,188,265c106,139,192,256,189,261c-2,4-26,7-52,7
			C9744,1340,9729,1335,9713,1318z"/>
		<path id="svg_16" class="st0" d="M9910,1325c0-8,59-132,130-275l130-260V545V300h45h45v240v241l134,274c74,151,131,276,128,279
			s-25,6-49,6h-43l-105-210c-58-116-107-210-110-210s-52,94-110,210l-105,210h-45C9922,1340,9910,1336,9910,1325z"/>
		<path id="svg_17" class="st0" d="M4815,1051c-77-19-146-81-164-148c-6-21-11-131-11-244V452l28-53c39-75,97-110,192-117
			c99-7,154,11,211,68c64,64,72,103,67,350c-3,179-5,198-25,237C5062,1031,4935,1080,4815,1051z M4988,944c55-41,62-71,62-274
			c0-158-3-191-19-226c-23-52-68-74-148-74c-71,0-118,25-139,75c-21,52-20,404,2,450c27,57,67,75,157,71C4941,965,4969,957,4988,944
			z"/>
		<path id="svg_18" class="st0" d="M11125,983c3-15,20-63,37-105l29-78h859h859l17,32c14,26,64,164,64,175c0,2-421,3-936,3h-936
			L11125,983z"/>
		<path id="svg_19" class="st0" d="M11350,570c0-5,44-54,98-110l97-100h508h508l100,102c54,56,99,105,99,110c0,4-317,8-705,8
			C11609,580,11350,576,11350,570z"/>
		<path id="svg_20" class="st0" d="M11880,107c120-80,158-100,186-93c23,6,214,123,214,132c0,2-105,4-232,4h-233L11880,107z"/>
	</g>
	<path id="svg_21" class="st0" d="M1106,31.7h13.7l4.2-13l4.2,13h13.7l-11.1,8l4.2,13l-11.1-8l-11.1,8l4.2-13L1106,31.7z"/>
	<path id="svg_22" class="st0" d="M1150,31.7h13.7l4.2-13l4.2,13h13.7l-11.1,8l4.2,13l-11.1-8l-11.1,8l4.2-13L1150,31.7z"/>
	<path id="svg_23" class="st0" d="M1196.2,31.7h13.7l4.2-13l4.2,13h13.7l-11.1,8l4.2,13l-11.1-8l-11.1,8l4.2-13L1196.2,31.7z"/>
</g>
</svg>
